<?xml version="1.0" standalone="no"?><!DOCTYPE svg PUBLIC "-//W3C//DTD SVG 1.1//EN" "http://www.w3.org/Graphics/SVG/1.1/DTD/svg11.dtd"><svg t="1727872975104" class="icon" viewBox="0 0 1024 1024" version="1.1" xmlns="http://www.w3.org/2000/svg" p-id="2022" xmlns:xlink="http://www.w3.org/1999/xlink" width="200" height="200"><path d="M274.88 32.064H253.376v3.136l-12.736 12.736 5.888 5.888 6.72 6.656 0.192 0.192v192.576h-180.672l2.88-2.816-5.824-5.824-6.72-6.72-5.824-5.824-21.184 21.12h-4.032V991.936h738.624v-4.48l22.208-22.016-5.888-5.824-6.656-6.656-5.824-5.888-3.904 3.84v-180.096h195.072l6.144 6.208 5.824 5.888 12.16-12.032h2.176V32.064h-717.12z m-185.152 919.488l51.392-48.768-5.824-5.888-6.656-6.72-5.888-5.824-48.896 54.144 0.64-637.504h648.64v422.016h-59.136v25.984h59.136v199.232h-597.632l-35.776 3.328z m680.896-228.544v-54.336h0.192v-26.048h-0.192v-370.176l9.664-9.664-5.76-5.824-6.656-6.784-5.76-5.888-9.152 8.96h-460.16v-178.048h635.84l-34.176 38.336 5.888 5.824 6.592 6.72 5.824 5.824 37.632-35.008v626.112h-179.776z" p-id="2023" fill="#ffffff"></path><path d="M368.768 731.264v17.728h35.328v-25.984h-35.328v8.256zM516.416 731.264v17.728h35.328v-25.984h-35.328v8.256zM590.208 731.264v17.728h35.392v-25.984h-35.392v8.256zM442.624 731.264v17.728h35.392v-25.984h-35.392v8.256zM296.064 453.696h8.32v-35.392h-25.984v35.392h17.664zM296.064 527.488h8.32v-35.392h-25.984v35.392h17.664zM296.064 601.408h8.32v-35.456h-25.984v35.456h17.664zM296.064 675.136h8.32v-35.328h-25.984v35.328h17.664zM304.384 713.536h-25.984v17.088l-23.232 22.912 5.824 5.888 6.72 6.784 5.76 5.888 23.296-23.104h33.6v-25.984h-25.984v-9.472zM296.064 379.904h8.32v-35.52h-25.984v35.52h17.664zM181.12 838.4l-5.76-5.888-25.216 24.896 5.888 5.76 6.592 6.784 5.76 5.888 25.216-24.896-5.696-5.888-6.784-6.656zM233.664 786.432l-5.824-5.888-25.088 24.896 5.76 5.888 6.528 6.72 5.952 5.888 25.152-24.96-5.824-5.824-6.656-6.72zM832.832 900.992l-5.824-5.952-25.152 25.024 5.824 5.888 6.656 6.656 5.824 5.888 25.088-24.896-5.824-5.888-6.592-6.72zM937.792 797.184l-5.76-5.952-25.152 25.024 5.824 5.888 6.592 6.592 5.888 5.952 25.152-24.96-5.824-5.824-6.72-6.72zM885.376 849.088l-5.824-5.888-25.216 24.96 5.76 5.824 6.72 6.784 5.824 5.824 25.216-24.896-5.824-5.888-6.656-6.72zM820.416 198.272l-5.76-5.888-25.216 24.896 5.888 5.824 6.528 6.784 5.824 5.888 25.216-24.896-5.824-5.888-6.656-6.72zM872.96 146.368l-5.76-5.952-25.28 24.96 5.824 5.888 6.656 6.72 5.824 5.888 25.152-24.896-5.76-5.888-6.656-6.72zM96.832 217.408l5.824 5.76 25.088-25.024-5.952-5.824-6.656-6.72-5.888-5.824-24.96 25.088 5.824 5.824 6.72 6.72zM201.088 112.832l5.824 5.888 25.024-25.152-5.824-5.824-6.72-6.656-5.824-5.888-25.024 25.088 5.824 5.888 6.72 6.656zM148.928 165.056l5.952 5.888 24.96-25.152-5.824-5.696-6.784-6.784-5.888-5.824-24.896 25.088 5.888 5.888 6.592 6.592z" p-id="2024" fill="#ffffff"></path></svg>